<?xml version="1.0" encoding="utf-8"?>
<!-- Generator: Adobe Illustrator 22.1.0, SVG Export Plug-In . SVG Version: 6.00 Build 0)  -->
<svg version="1.1" id="Layer_1" xmlns="http://www.w3.org/2000/svg" xmlns:xlink="http://www.w3.org/1999/xlink" x="0px" y="0px"
	 viewBox="0 0 627.7 239.3" style="enable-background:new 0 0 627.7 239.3;" xml:space="preserve">
<style type="text/css">
	.st0{fill:#FFFFFF;}
</style>
<g>
	<path class="st0" d="M119.3,7.6C57.2,7.6,6.7,58.1,6.7,120.2c0,62.1,50.5,112.7,112.7,112.7S232,182.4,232,120.2
		C232,58.1,181.5,7.6,119.3,7.6z M119.3,18.2c56.2,0,102,45.8,102,102c0,11.6-2,22.8-5.5,33.2c-27.3-1.4-81.3-19.4-100.1-47.5
		c-0.3-0.7-0.6-1.3-1.1-1.8C100.4,81.8,93.9,59.3,93.9,59c-0.8-2.8-3.7-4.5-6.6-3.7c-2.7,0.8-4.4,3.6-3.7,6.3
		c-0.1,0.4-0.1,0.8-0.1,1.2v10.7h-8.3c-2.9,0-5.3,2.4-5.3,5.3s2.4,5.3,5.3,5.3h8.3v88.3h-8.3c-2.9,0-5.3,2.4-5.3,5.3
		c0,2.9,2.4,5.3,5.3,5.3h8.3v32.5c3.5,1.3,7,2.4,10.7,3.4c-9.9-2.5-19.2-6.5-27.7-11.7V62.9c0-0.4-0.1-0.8-0.1-1.2
		c0.6-2.8-1-5.5-3.7-6.3c-2.8-0.8-5.8,0.9-6.6,3.7c-0.2,0.6-11.8,40.9-38.4,67.6c-0.1-2.1-0.2-4.3-0.2-6.4
		C17.3,64,63.1,18.2,119.3,18.2z M94.1,88.9c3,6.5,6.8,13.6,11.3,20.8v62.8H94.1V88.9z M116.1,122.7c3.4,3.3,7.2,6.4,11.3,9.4v40.4
		h-11.3V122.7z M138,139.1c3.7,2.2,7.5,4.2,11.3,6.1v27.3H138V139.1z M160,150c3.8,1.6,7.6,3,11.3,4.4v18.1H160V150z M182,157.8
		c3.9,1.1,7.7,2.1,11.3,3v11.7H182V157.8z M203.8,177.3c1.1-1.6,2.1-3.2,3.1-4.8H204v-9.7c2.6,0.4,5.2,0.7,7.5,1
		C209.3,168.5,206.7,173.1,203.8,177.3C203.8,177.3,203.8,177.3,203.8,177.3z M215.8,153.4c-0.3,0.9-0.6,1.7-0.9,2.6
		C215.2,155.1,215.5,154.3,215.8,153.4z M214.8,156.2c-0.3,0.8-0.6,1.6-0.9,2.3C214.2,157.8,214.5,157,214.8,156.2z M213.8,158.8
		c-0.3,0.8-0.6,1.6-1,2.3C213.1,160.4,213.4,159.6,213.8,158.8z M212.7,161.3c-0.4,0.8-0.7,1.6-1.1,2.5
		C211.9,163,212.3,162.2,212.7,161.3z M33.7,175.7L33.7,175.7c-7-10.8-12-22.9-14.5-35.9c5.1-4.4,9.9-9.5,14.5-15.2v47.9h-2
		C32.4,173.6,33.1,174.6,33.7,175.7z M44.4,109.6c4.5-7.2,8.3-14.3,11.3-20.8v83.6H44.4V109.6z M66.4,207.4
		c-0.9-0.5-1.7-1.1-2.5-1.6C64.7,206.3,65.5,206.9,66.4,207.4z M63.3,205.5c-0.7-0.5-1.5-1-2.2-1.5C61.9,204.5,62.6,205,63.3,205.5z
		 M19.2,139.7c-0.8-4.3-1.4-8.6-1.7-13.1C17.8,131.1,18.4,135.4,19.2,139.7z M38.3,182.1C38.3,182.1,38.3,182.1,38.3,182.1
		c0.3,0.4,0.5,0.7,0.8,1.1h16.6v16.8C49.2,194.7,43.3,188.7,38.3,182.1z M60.9,203.8c-1.7-1.2-3.5-2.5-5.1-3.8
		C57.4,201.3,59.1,202.5,60.9,203.8z M119.3,222.2c-8.7,0-17.2-1.1-25.3-3.2v-35.9h105.5c0.6-0.8,1.2-1.6,1.8-2.4
		C182.8,205.9,152.9,222.2,119.3,222.2z"/>
	<g>
		<path class="st0" d="M312.2,167.2L312.2,167.2c-5.1,0-9.5-1.8-13-5.4c-3.6-3.6-5.4-7.9-5.4-12.9v-32.3h12.1c2.1,0,3.8-0.7,5.3-2.2
			c1.5-1.4,2.2-3.2,2.2-5.3c0-2.1-0.7-3.8-2.2-5.3c-1.4-1.4-3.2-2.2-5.3-2.2h-12.1V76.9c0-2-0.7-3.8-2.2-5.3
			c-1.5-1.4-3.2-2.2-5.3-2.2c-2.1,0-3.9,0.7-5.4,2.2c-1.4,1.5-2.2,3.2-2.2,5.3v24.8h-12.1c-2.1,0-3.8,0.7-5.3,2.2
			c-1.5,1.4-2.2,3.2-2.2,5.3s0.7,3.8,2.2,5.3c1.4,1.4,3.2,2.2,5.3,2.2h12.1v32.3c0,9.2,3.2,17,9.7,23.5c6.5,6.5,14.3,9.7,23.5,9.7
			h0.1c2.1,0,3.8-0.7,5.3-2.2c1.5-1.5,2.2-3.3,2.2-5.4c0-2-0.7-3.8-2.2-5.3C316,167.9,314.2,167.2,312.2,167.2z"/>
		<path class="st0" d="M387.2,100.4c-3.9,0-6.3,1.9-7.2,5.7c-5.6-3.8-11.8-5.7-18.5-5.7h-0.6c-9.2,0-17,3.2-23.5,9.7
			c-6.5,6.5-9.7,14.3-9.7,23.5v15.3c0,9.2,3.2,17,9.7,23.5c6.5,6.5,14.3,9.7,23.5,9.7h0.6c6.8,0,12.9-1.9,18.5-5.7
			c0.9,3.8,3.3,5.7,7.2,5.7c2.1,0,3.8-0.7,5.3-2.2c1.5-1.5,2.2-3.3,2.2-5.4v-66.8c0-2-0.7-3.8-2.2-5.3
			C391,101.1,389.3,100.4,387.2,100.4z M379.8,148.9c0,5.1-1.8,9.4-5.4,12.9c-3.6,3.6-7.9,5.4-12.9,5.4h-0.6
			c-5.1,0-9.4-1.8-12.9-5.4c-3.6-3.6-5.4-7.9-5.4-12.9v-15.3c0-5.1,1.8-9.4,5.4-12.9c3.6-3.6,7.9-5.4,12.9-5.4h0.6
			c5,0,9.3,1.8,12.9,5.4c3.6,3.6,5.4,7.9,5.4,12.9V148.9z"/>
		<path class="st0" d="M467,101.1c-3.9,0-6.3,1.9-7.2,5.7c-5.6-3.8-11.8-5.7-18.5-5.7h-0.6c-9.2,0-17,3.2-23.5,9.7
			c-6.5,6.5-9.7,14.3-9.7,23.5v15.3c0,9.2,3.2,17,9.7,23.5c6.5,6.5,14.3,9.7,23.5,9.7h0.6c6.6,0,12.7-1.8,18.2-5.5v4.8h0.1
			c0,5.1-1.8,9.4-5.4,12.9c-3.6,3.6-7.9,5.4-12.9,5.4h-0.6c-5.1,0-9.4-1.8-12.9-5.4c-2.6-2.6-5.5-3-8.8-1.2c-2.2,1.2-3.5,3-3.8,5.5
			c-0.4,2.5,0.3,4.6,2.2,6.4c6.4,6.4,14.3,9.7,23.4,9.7h0.6c9.2,0,17-3.2,23.5-9.7c6.5-6.5,9.7-14.3,9.7-23.5h-0.1l0.1-6.8v-66.8
			c0-2.1-0.7-3.8-2.2-5.3C470.9,101.8,469.1,101.1,467,101.1z M459.6,149.7c0,5-1.8,9.3-5.4,12.9c-3.6,3.6-7.9,5.4-12.9,5.4h-0.6
			c-5.1,0-9.4-1.8-12.9-5.4c-3.6-3.6-5.4-7.9-5.4-12.9v-15.3c0-5,1.8-9.3,5.4-12.9c3.6-3.6,7.9-5.4,12.9-5.4h0.6
			c5,0,9.3,1.8,12.9,5.4c3.6,3.6,5.4,7.9,5.4,12.9V149.7z"/>
		<path class="st0" d="M545.3,100.4c-2.1,0-3.8,0.7-5.3,2.2c-1.4,1.5-2.2,3.2-2.2,5.3v41.1c0,5.1-1.8,9.4-5.4,12.9
			c-3.6,3.6-7.9,5.4-12.9,5.4H519c-5.1,0-9.4-1.8-12.9-5.4c-3.6-3.6-5.4-7.9-5.4-12.9v-41.1c0-2-0.7-3.8-2.2-5.3
			c-1.5-1.4-3.2-2.2-5.3-2.2c-2.1,0-3.9,0.7-5.4,2.2c-1.4,1.5-2.2,3.2-2.2,5.3v41.1c0,9.2,3.2,17,9.7,23.5
			c6.5,6.5,14.3,9.7,23.5,9.7h0.6c6.8,0,12.9-1.9,18.5-5.7c0.9,3.8,3.3,5.7,7.2,5.7c2.1,0,3.8-0.7,5.3-2.2c1.5-1.5,2.2-3.3,2.2-5.4
			v-66.8c0-2-0.7-3.8-2.2-5.3C549.1,101.1,547.3,100.4,545.3,100.4z"/>
		<path class="st0" d="M614.1,140.9c-5.6-6.4-13-9.6-22.1-9.6c-2.8,0-5.1-1-7-3c-1.9-2-2.5-4.3-1.9-6.9c0.4-1.9,1.5-3.5,3.3-4.7
			c1.7-1.2,3.6-1.8,5.8-1.8h0.2c3.5,0,6.1,1.4,7.8,4.1c1.8,2.7,4.2,4.1,7.4,4.1c3.1,0,5.5-1.2,7.1-3.7c1.6-2.5,1.6-4.9,0.1-7.4
			c-4.9-8-12.4-12-22.4-12h-0.2c-5.8,0-10.9,1.5-15.6,4.6c-4.6,3.1-7.7,7.2-9.2,12.1c-2.3,7.6-0.9,14.4,4.2,20.5
			c5,6,11.6,9,19.9,9.2c3,0.1,5.7,0.9,7.9,2.6c2.3,1.8,3.7,3.9,4.1,6.6c0.4,3.1-0.5,5.9-2.8,8.3c-2.3,2.3-5.2,3.5-8.7,3.5h-0.4
			c-4.8,0-8.3-2-10.4-5.9c-1.7-3-4.2-4.6-7.7-4.6c-3,0-5.3,1.1-7,3.4c-1.6,2.3-1.8,4.7-0.5,7.2c2.2,4.4,5.6,8,10.1,10.7
			c4.6,2.7,9.7,4.1,15.3,4.1h0.2c6.4,0,12.3-1.8,17.4-5.3c5.2-3.6,8.6-8.2,10.1-13.7C621.5,154.9,619.8,147.4,614.1,140.9z"/>
	</g>
</g>
</svg>
