<?xml version="1.0" encoding="utf-8"?>
<!-- Generator: Adobe Illustrator 22.1.0, SVG Export Plug-In . SVG Version: 6.00 Build 0)  -->
<svg version="1.1" id="Layer_1" xmlns="http://www.w3.org/2000/svg" xmlns:xlink="http://www.w3.org/1999/xlink" x="0px" y="0px"
	 viewBox="0 0 373.8 383.2" style="enable-background:new 0 0 373.8 383.2;" xml:space="preserve">
<style type="text/css">
	.st0{fill:#ED1C24;}
</style>
<g>
	<path class="st0" d="M186.9,5.9c-62.1,0-112.7,50.5-112.7,112.7c0,62.1,50.5,112.7,112.7,112.7s112.7-50.5,112.7-112.7
		C299.6,56.5,249,5.9,186.9,5.9z M186.9,16.6c56.2,0,102,45.8,102,102c0,11.6-2,22.8-5.5,33.2c-27.3-1.4-81.3-19.4-100.1-47.5
		c-0.3-0.7-0.6-1.3-1.1-1.8c-14.2-22.4-20.6-44.9-20.7-45.1c-0.8-2.8-3.7-4.5-6.6-3.7c-2.7,0.8-4.4,3.6-3.7,6.3
		c-0.1,0.4-0.1,0.8-0.1,1.2v10.7h-8.3c-2.9,0-5.3,2.4-5.3,5.3s2.4,5.3,5.3,5.3h8.3v88.3h-8.3c-2.9,0-5.3,2.4-5.3,5.3
		c0,2.9,2.4,5.3,5.3,5.3h8.3v32.5c3.5,1.3,7,2.4,10.7,3.4c-9.9-2.5-19.2-6.5-27.7-11.7V61.3c0-0.4-0.1-0.8-0.1-1.2
		c0.6-2.8-1-5.5-3.7-6.3c-2.8-0.8-5.8,0.9-6.6,3.7c-0.2,0.6-11.8,40.9-38.4,67.6c-0.1-2.1-0.2-4.3-0.2-6.4
		C84.9,62.4,130.6,16.6,186.9,16.6z M161.6,87.3c3,6.5,6.8,13.6,11.3,20.8v62.8h-11.3V87.3z M183.6,121.1c3.4,3.3,7.2,6.4,11.3,9.4
		v40.4h-11.3V121.1z M205.6,137.4c3.7,2.2,7.5,4.2,11.3,6.1v27.3h-11.3V137.4z M227.6,148.4c3.8,1.6,7.6,3,11.3,4.4v18.1h-11.3
		V148.4z M249.6,156.2c3.9,1.1,7.7,2.1,11.3,3v11.7h-11.3V156.2z M271.4,175.7c1.1-1.6,2.1-3.2,3.1-4.8h-2.9v-9.7
		c2.6,0.4,5.2,0.7,7.5,1C276.9,166.9,274.3,171.4,271.4,175.7C271.4,175.7,271.4,175.7,271.4,175.7z M283.3,151.8
		c-0.3,0.9-0.6,1.7-0.9,2.6C282.7,153.5,283.1,152.7,283.3,151.8z M282.3,154.6c-0.3,0.8-0.6,1.6-0.9,2.3
		C281.7,156.2,282,155.4,282.3,154.6z M281.3,157.2c-0.3,0.8-0.6,1.6-1,2.3C280.7,158.7,281,158,281.3,157.2z M280.2,159.7
		c-0.4,0.8-0.7,1.6-1.1,2.5C279.5,161.4,279.9,160.5,280.2,159.7z M101.3,174L101.3,174c-7-10.8-12-22.9-14.5-35.9
		c5.1-4.4,9.9-9.5,14.5-15.2v47.9h-2C100,171.9,100.6,173,101.3,174z M112,108c4.5-7.2,8.3-14.3,11.3-20.8v83.6H112V108z
		 M133.9,205.8c-0.9-0.5-1.7-1.1-2.5-1.6C132.2,204.7,133.1,205.3,133.9,205.8z M130.9,203.8c-0.7-0.5-1.5-1-2.2-1.5
		C129.4,202.8,130.1,203.3,130.9,203.8z M86.8,138.1c-0.8-4.3-1.4-8.6-1.7-13.1C85.4,129.5,85.9,133.8,86.8,138.1z M105.8,180.5
		C105.8,180.5,105.8,180.5,105.8,180.5c0.3,0.4,0.5,0.7,0.8,1.1h16.6v16.8C116.8,193.1,110.9,187.1,105.8,180.5z M128.4,202.1
		c-1.7-1.2-3.5-2.5-5.1-3.8C125,199.6,126.7,200.9,128.4,202.1z M186.9,220.6c-8.7,0-17.2-1.1-25.3-3.2v-35.9h105.5
		c0.6-0.8,1.2-1.6,1.8-2.4C250.3,204.3,220.5,220.6,186.9,220.6z"/>
	<g>
		<path d="M59.3,329L59.3,329c-5.1,0-9.5-1.8-13-5.4c-3.6-3.6-5.4-7.9-5.4-12.9v-32.3H53c2.1,0,3.8-0.7,5.3-2.2
			c1.5-1.4,2.2-3.2,2.2-5.3c0-2.1-0.7-3.8-2.2-5.3c-1.4-1.4-3.2-2.2-5.3-2.2H40.9v-24.8c0-2-0.7-3.8-2.2-5.3
			c-1.5-1.4-3.2-2.2-5.3-2.2c-2.1,0-3.9,0.7-5.4,2.2c-1.4,1.5-2.2,3.2-2.2,5.3v24.8H13.9c-2.1,0-3.8,0.7-5.3,2.2
			c-1.5,1.4-2.2,3.2-2.2,5.3s0.7,3.8,2.2,5.3c1.4,1.4,3.2,2.2,5.3,2.2H26v32.3c0,9.2,3.2,17,9.7,23.5c6.5,6.5,14.3,9.7,23.5,9.7h0.1
			c2.1,0,3.8-0.7,5.3-2.2c1.5-1.5,2.2-3.3,2.2-5.4c0-2-0.7-3.8-2.2-5.3C63.1,329.7,61.4,329,59.3,329z"/>
		<path d="M134.4,262.2c-3.9,0-6.3,1.9-7.2,5.7c-5.6-3.8-11.8-5.7-18.5-5.7h-0.6c-9.2,0-17,3.2-23.5,9.7c-6.5,6.5-9.7,14.3-9.7,23.5
			v15.3c0,9.2,3.2,17,9.7,23.5c6.5,6.5,14.3,9.7,23.5,9.7h0.6c6.8,0,12.9-1.9,18.5-5.7c0.9,3.8,3.3,5.7,7.2,5.7
			c2.1,0,3.8-0.7,5.3-2.2c1.5-1.5,2.2-3.3,2.2-5.4v-66.8c0-2-0.7-3.8-2.2-5.3C138.2,262.9,136.4,262.2,134.4,262.2z M126.9,310.7
			c0,5.1-1.8,9.4-5.4,12.9c-3.6,3.6-7.9,5.4-12.9,5.4h-0.6c-5.1,0-9.4-1.8-12.9-5.4c-3.6-3.6-5.4-7.9-5.4-12.9v-15.3
			c0-5.1,1.8-9.4,5.4-12.9c3.6-3.6,7.9-5.4,12.9-5.4h0.6c5,0,9.3,1.8,12.9,5.4c3.6,3.6,5.4,7.9,5.4,12.9V310.7z"/>
		<path d="M214.2,262.9c-3.9,0-6.3,1.9-7.2,5.7c-5.6-3.8-11.8-5.7-18.5-5.7h-0.6c-9.2,0-17,3.2-23.5,9.7c-6.5,6.5-9.7,14.3-9.7,23.5
			v15.3c0,9.2,3.2,17,9.7,23.5c6.5,6.5,14.3,9.7,23.5,9.7h0.6c6.6,0,12.7-1.8,18.2-5.5v4.8h0.1c0,5.1-1.8,9.4-5.4,12.9
			c-3.6,3.6-7.9,5.4-12.9,5.4h-0.6c-5.1,0-9.4-1.8-12.9-5.4c-2.6-2.6-5.5-3-8.8-1.2c-2.2,1.2-3.5,3-3.8,5.5
			c-0.4,2.5,0.3,4.6,2.2,6.4c6.4,6.4,14.3,9.7,23.4,9.7h0.6c9.2,0,17-3.2,23.5-9.7c6.5-6.5,9.7-14.3,9.7-23.5h-0.1l0.1-6.8v-66.8
			c0-2.1-0.7-3.8-2.2-5.3C218,263.7,216.3,262.9,214.2,262.9z M206.8,311.5c0,5-1.8,9.3-5.4,12.9c-3.6,3.6-7.9,5.4-12.9,5.4h-0.6
			c-5.1,0-9.4-1.8-12.9-5.4c-3.6-3.6-5.4-7.9-5.4-12.9v-15.3c0-5,1.8-9.3,5.4-12.9s7.9-5.4,12.9-5.4h0.6c5,0,9.3,1.8,12.9,5.4
			c3.6,3.6,5.4,7.9,5.4,12.9V311.5z"/>
		<path d="M292.4,262.2c-2.1,0-3.8,0.7-5.3,2.2c-1.4,1.5-2.2,3.2-2.2,5.3v41.1c0,5.1-1.8,9.4-5.4,12.9c-3.6,3.6-7.9,5.4-12.9,5.4
			h-0.6c-5.1,0-9.4-1.8-12.9-5.4c-3.6-3.6-5.4-7.9-5.4-12.9v-41.1c0-2-0.7-3.8-2.2-5.3c-1.5-1.4-3.2-2.2-5.3-2.2
			c-2.1,0-3.9,0.7-5.4,2.2c-1.4,1.5-2.2,3.2-2.2,5.3v41.1c0,9.2,3.2,17,9.7,23.5c6.5,6.5,14.3,9.7,23.5,9.7h0.6
			c6.8,0,12.9-1.9,18.5-5.7c0.9,3.8,3.3,5.7,7.2,5.7c2.1,0,3.8-0.7,5.3-2.2c1.5-1.5,2.2-3.3,2.2-5.4v-66.8c0-2-0.7-3.8-2.2-5.3
			C296.3,262.9,294.5,262.2,292.4,262.2z"/>
		<path d="M361.2,302.7c-5.6-6.4-13-9.6-22.1-9.6c-2.8,0-5.1-1-7-3c-1.9-2-2.5-4.3-1.9-6.9c0.4-1.9,1.5-3.5,3.3-4.7
			c1.7-1.2,3.6-1.8,5.8-1.8h0.2c3.5,0,6.1,1.4,7.8,4.1c1.8,2.7,4.2,4.1,7.4,4.1c3.1,0,5.5-1.2,7.1-3.7c1.6-2.5,1.6-4.9,0.1-7.4
			c-4.9-8-12.4-12-22.4-12h-0.2c-5.8,0-10.9,1.5-15.6,4.6c-4.6,3.1-7.7,7.2-9.2,12.1c-2.3,7.6-0.9,14.4,4.2,20.5
			c5,6,11.6,9,19.9,9.2c3,0.1,5.7,0.9,7.9,2.6c2.3,1.8,3.7,3.9,4.1,6.6c0.4,3.1-0.5,5.9-2.8,8.3c-2.3,2.3-5.2,3.5-8.7,3.5h-0.4
			c-4.8,0-8.3-2-10.4-5.9c-1.7-3-4.2-4.6-7.7-4.6c-3,0-5.3,1.1-7,3.4c-1.6,2.3-1.8,4.7-0.5,7.2c2.2,4.4,5.6,8,10.1,10.7
			c4.6,2.7,9.7,4.1,15.3,4.1h0.2c6.4,0,12.3-1.8,17.4-5.3c5.2-3.6,8.6-8.2,10.1-13.7C368.7,316.7,366.9,309.3,361.2,302.7z"/>
	</g>
</g>
</svg>
